<!-- Generator: Adobe Illustrator 22.1.0, SVG Export Plug-In  -->
<svg version="1.1"
	 xmlns="http://www.w3.org/2000/svg" xmlns:xlink="http://www.w3.org/1999/xlink" xmlns:a="http://ns.adobe.com/AdobeSVGViewerExtensions/3.0/"
	 x="0px" y="0px" width="55.5px" height="58.3px" viewBox="0 0 55.5 58.3" style="enable-background:new 0 0 55.5 58.3;"
	 xml:space="preserve">
<style type="text/css">
	.st0{fill:#686871;}
</style>
<defs>
</defs>
<g>
	<polygon class="st0" points="23.6,53.6 20.2,53.6 20.2,58.3 28.3,58.3 35.2,58.3 35.2,53.6 28.3,53.6 	"/>
	<polygon class="st0" points="27.7,0 0,18.2 0,58.3 15.4,58.3 15.4,53.6 15.3,53.6 4.8,53.6 4.8,20.8 27.7,5.7 50.7,20.8 50.7,53.6 
		47.7,53.6 44.6,53.6 42,53.6 40,53.6 40,58.3 42,58.3 55.5,58.3 55.5,18.2 	"/>
	<polygon class="st0" points="23.6,32 20.2,32 20.2,36.8 28.3,36.8 35.2,36.8 35.2,32 28.3,32 	"/>
</g>
</svg>
