<!-- Generator: Adobe Illustrator 22.1.0, SVG Export Plug-In  -->
<svg version="1.1"
	 xmlns="http://www.w3.org/2000/svg" xmlns:xlink="http://www.w3.org/1999/xlink" xmlns:a="http://ns.adobe.com/AdobeSVGViewerExtensions/3.0/"
	 x="0px" y="0px" width="66.5px" height="58.3px" viewBox="0 0 66.5 58.3" style="enable-background:new 0 0 66.5 58.3;"
	 xml:space="preserve">
<style type="text/css">
	.st0{fill:#686871;}
</style>
<defs>
</defs>
<g>
	<rect x="12.3" y="12.8" class="st0" width="13.3" height="5"/>
	<rect x="12.3" y="21.9" class="st0" width="13.3" height="5"/>
	<rect x="12.3" y="31" class="st0" width="13.3" height="5"/>
	<path class="st0" d="M42.6,12.8C36.2,12.8,31,18,31,24.4C31,30.8,36.2,36,42.6,36s11.6-5.2,11.6-11.6C54.1,18,48.9,12.8,42.6,12.8z
		 M42.6,31c-3.6,0-6.6-3-6.6-6.6c0-3.6,3-6.6,6.6-6.6c3.6,0,6.6,3,6.6,6.6C49.2,28,46.2,31,42.6,31z"/>
	<path class="st0" d="M35,47L35,47l31.5-0.1V0H0v46.9h30V47v3.8v2.6h-7.5v5H30h5h7.7v-5H35v-2.6V47z M8.3,41.9H5v-3.8V5h53.5h3v4.1
		v32.9H8.3z"/>
</g>
</svg>
