<!-- Generator: Adobe Illustrator 22.1.0, SVG Export Plug-In  -->
<svg version="1.1"
	 xmlns="http://www.w3.org/2000/svg" xmlns:xlink="http://www.w3.org/1999/xlink" xmlns:a="http://ns.adobe.com/AdobeSVGViewerExtensions/3.0/"
	 x="0px" y="0px" width="87px" height="58.4px" viewBox="0 0 87 58.4" style="enable-background:new 0 0 87 58.4;"
	 xml:space="preserve">
<style type="text/css">
	.st0{fill:#686871;}
</style>
<defs>
</defs>
<g>
	<rect x="76.1" y="26.8" class="st0" width="10.9" height="4.9"/>
	<rect x="67.5" y="6" transform="matrix(0.7073 -0.7069 0.7069 0.7073 15.3636 54.046)" class="st0" width="10.9" height="4.9"/>
	
		<rect x="70.4" y="44.5" transform="matrix(0.7069 -0.7073 0.7073 0.7069 -13.9883 66.2043)" class="st0" width="4.9" height="10.9"/>
	<path class="st0" d="M0,37.4l12,3.7c-0.3,3,0.2,6,1.6,8.8c1.9,3.7,5.1,6.5,9.1,7.8c1.6,0.5,3.2,0.8,4.9,0.8c2.4,0,4.9-0.6,7.1-1.7
		c2.9-1.5,5.2-3.8,6.7-6.5l21.7,6.7V0L0,19.5V37.4z M32.4,52.4c-2.6,1.3-5.5,1.5-8.2,0.6c-4.6-1.5-7.5-5.8-7.4-10.4l19.7,6.1
		C35.5,50.2,34.1,51.5,32.4,52.4z M4.9,23.1L58.2,6.7v43.6L4.9,33.8V23.1z"/>
</g>
</svg>
