<!-- Generator: Adobe Illustrator 22.1.0, SVG Export Plug-In  -->
<svg version="1.1"
	 xmlns="http://www.w3.org/2000/svg" xmlns:xlink="http://www.w3.org/1999/xlink" xmlns:a="http://ns.adobe.com/AdobeSVGViewerExtensions/3.0/"
	 x="0px" y="0px" width="54.5px" height="59.4px" viewBox="0 0 54.5 59.4" style="enable-background:new 0 0 54.5 59.4;"
	 xml:space="preserve">
<style type="text/css">
	.st0{fill:#686871;}
</style>
<defs>
</defs>
<path class="st0" d="M44.3,23.2h-3.1h-0.9V7.8V5.4L35.8,0h-7.3v22.1l-2.8,2.8L21,29.6h-1.3v-7.9H0v37.7h19.7v-7.9h0.5l6.5,6.5H39v0
	h15.5V50v-2.5v-5.6v-2.5v-5.6v-2.5v-8.1H44.3z M17.2,56.9H2.5V24.3h14.7V56.9z M39,31.2v2.5v5.6v2.5v5.6V50v5.5H27.8L21.3,49h-1.6
	V32.2H22l5.3-5.3l1.2-1.2l2.7-2.7v-7.6V2.5h1.7l4.5,5.4v7.5v7.8v1l1.6,1.6V31.2z M52,55.5H41.6V50H52V55.5z M52,47.4H41.6v-5.6H52
	V47.4z M52,39.3H41.6v-5.6H52V39.3z M52,31.2H41.6v-5.6H52V31.2z"/>
</svg>
